<svg width="28" height="28" viewBox="0 0 28 28" fill="none" xmlns="http://www.w3.org/2000/svg">
<path d="M26.5368 6.56793C26.8425 5.58192 26.9405 4.54328 26.8248 3.51749C26.709 2.49171 26.382 1.50103 25.8643 0.607927C25.7765 0.455874 25.6502 0.329615 25.4982 0.241845C25.3461 0.154075 25.1736 0.107887 24.998 0.107927C23.8333 0.105488 22.6841 0.375507 21.6423 0.896407C20.6005 1.41731 19.695 2.17465 18.998 3.10793H15.998C15.3011 2.17465 14.3956 1.41731 13.3538 0.896407C12.312 0.375507 11.1628 0.105488 9.99805 0.107927C9.82247 0.107887 9.64998 0.154075 9.49792 0.241845C9.34586 0.329615 9.21958 0.455874 9.1318 0.607927C8.61411 1.50103 8.28708 2.49171 8.17133 3.51749C8.05559 4.54328 8.15364 5.58192 8.4593 6.56793C7.84146 7.64632 7.5105 8.86514 7.49805 10.1079V11.1079C7.50015 12.7999 8.11438 14.434 9.22732 15.7085C10.3403 16.983 11.8767 17.8117 13.553 18.0417C12.8688 18.9173 12.4974 19.9967 12.498 21.1079V22.1079H9.49805C8.7024 22.1079 7.93934 21.7919 7.37673 21.2292C6.81412 20.6666 6.49805 19.9036 6.49805 19.1079C6.49805 18.4513 6.36872 17.8011 6.11744 17.1945C5.86617 16.5879 5.49787 16.0367 5.03358 15.5724C4.56929 15.1081 4.01809 14.7398 3.41146 14.4885C2.80484 14.2373 2.15466 14.1079 1.49805 14.1079C1.23283 14.1079 0.978476 14.2133 0.79094 14.4008C0.603404 14.5884 0.498047 14.8427 0.498047 15.1079C0.498047 15.3731 0.603404 15.6275 0.79094 15.815C0.978476 16.0026 1.23283 16.1079 1.49805 16.1079C2.2937 16.1079 3.05676 16.424 3.61937 16.9866C4.18198 17.5492 4.49805 18.3123 4.49805 19.1079C4.49805 20.434 5.02483 21.7058 5.96251 22.6435C6.9002 23.5811 8.17196 24.1079 9.49805 24.1079H12.498V26.1079C12.498 26.3731 12.6034 26.6275 12.7909 26.815C12.9785 27.0026 13.2328 27.1079 13.498 27.1079C13.7633 27.1079 14.0176 27.0026 14.2052 26.815C14.3927 26.6275 14.498 26.3731 14.498 26.1079V21.1079C14.498 20.3123 14.8141 19.5492 15.3767 18.9866C15.9393 18.424 16.7024 18.1079 17.498 18.1079C18.2937 18.1079 19.0568 18.424 19.6194 18.9866C20.182 19.5492 20.498 20.3123 20.498 21.1079V26.1079C20.498 26.3731 20.6034 26.6275 20.7909 26.815C20.9785 27.0026 21.2328 27.1079 21.498 27.1079C21.7633 27.1079 22.0176 27.0026 22.2052 26.815C22.3927 26.6275 22.498 26.3731 22.498 26.1079V21.1079C22.4987 19.9967 22.1273 18.9173 21.443 18.0417C23.1193 17.8117 24.6558 16.983 25.7688 15.7085C26.8817 14.434 27.4959 12.7999 27.498 11.1079V10.1079C27.4856 8.86514 27.1546 7.64632 26.5368 6.56793ZM25.498 11.1079C25.498 12.434 24.9713 13.7058 24.0336 14.6435C23.0959 15.5811 21.8241 16.1079 20.498 16.1079H14.498C13.172 16.1079 11.9002 15.5811 10.9625 14.6435C10.0248 13.7058 9.49805 12.434 9.49805 11.1079V10.1079C9.51031 9.10796 9.80969 8.13258 10.3605 7.29793C10.4632 7.16258 10.5297 7.00329 10.5538 6.83511C10.5779 6.66693 10.5587 6.49539 10.498 6.33668C10.2376 5.66492 10.1122 4.94837 10.1292 4.22809C10.1461 3.5078 10.305 2.79794 10.5968 2.13918C11.4152 2.22722 12.2033 2.49832 12.9026 2.93239C13.602 3.36646 14.1947 3.95237 14.6368 4.64668C14.7269 4.78756 14.8509 4.9036 14.9974 4.98418C15.1439 5.06476 15.3083 5.1073 15.4755 5.10793H19.5193C19.6872 5.10793 19.8523 5.06568 19.9995 4.98507C20.1468 4.90447 20.2714 4.78809 20.3618 4.64668C20.8038 3.95231 21.3965 3.36635 22.0959 2.93227C22.7953 2.4982 23.5834 2.22713 24.4018 2.13918C24.6932 2.7981 24.8517 3.50805 24.8682 4.22834C24.8847 4.94862 24.7589 5.66509 24.498 6.33668C24.4376 6.49387 24.4174 6.66367 24.4392 6.83066C24.461 6.99765 24.5242 7.15655 24.623 7.29293C25.1794 8.12758 25.4832 9.10497 25.498 10.1079V11.1079Z" fill="#E2E4E9"/>
</svg>
