<svg width="24" height="24" viewBox="0 0 24 24" fill="none" xmlns="http://www.w3.org/2000/svg">
<path d="M8.9832 10.8444L9.3992 3.8106C9.40251 3.75556 9.42402 3.70318 9.46035 3.66171C9.49668 3.62023 9.54577 3.592 9.59989 3.58147L16.3696 2.25466C16.4115 2.24645 16.4547 2.24912 16.4951 2.26242C16.5356 2.27572 16.572 2.2992 16.6008 2.3306C16.6296 2.36201 16.6498 2.40029 16.6596 2.44176C16.6693 2.48324 16.6683 2.52653 16.6565 2.56747L15.3906 6.95741C15.3788 6.99828 15.3778 7.04147 15.3875 7.08287C15.3972 7.12426 15.4173 7.16248 15.446 7.19386C15.4747 7.22524 15.511 7.24874 15.5513 7.26211C15.5917 7.27548 15.6348 7.27827 15.6766 7.27023L17.6168 6.89648C17.6625 6.88755 17.7097 6.89161 17.7532 6.90819C17.7966 6.92478 17.8346 6.95322 17.8627 6.99029C17.8908 7.02736 17.9079 7.07157 17.9121 7.1179C17.9164 7.16423 17.9075 7.21081 17.8866 7.25235L12.3697 18.2617L12.2698 18.4161C12.2483 18.4511 12.2182 18.4799 12.1823 18.4998C12.1464 18.5197 12.106 18.5301 12.065 18.5299C11.9212 18.5299 11.7806 18.4064 11.8172 18.23L12.7069 13.923C12.7156 13.8808 12.7132 13.8371 12.7 13.7961C12.6867 13.7551 12.663 13.7182 12.6313 13.6891C12.5995 13.6601 12.5607 13.6397 12.5187 13.6302C12.4767 13.6206 12.4329 13.6221 12.3916 13.6345L11.2273 13.988C11.1861 14.0005 11.1423 14.0022 11.1003 13.9927C11.0582 13.9833 11.0194 13.963 10.9875 13.934C10.9556 13.905 10.9319 13.8682 10.9185 13.8273C10.9051 13.7863 10.9026 13.7426 10.9113 13.7004L11.4719 10.9582C11.4804 10.9172 11.4784 10.8748 11.4662 10.8348C11.4539 10.7948 11.4318 10.7586 11.4018 10.7294C11.3719 10.7003 11.335 10.6791 11.2947 10.668C11.2544 10.6568 11.212 10.656 11.1713 10.6657L9.28626 11.1012C9.24864 11.1098 9.20953 11.1096 9.17201 11.1005C9.1345 11.0914 9.09962 11.0737 9.07013 11.0488C9.04065 11.0239 9.01737 10.9924 9.00214 10.9569C8.98691 10.9215 8.98015 10.8829 8.98239 10.8444H8.9832ZM21.1512 4.40454L16.2941 5.28854L15.8521 6.82172L17.5396 6.49673C17.6704 6.47065 17.8061 6.48544 17.9281 6.53907C18.0502 6.5927 18.1529 6.68259 18.2221 6.79654C18.2809 6.8913 18.3144 6.9996 18.3192 7.11102C18.324 7.22243 18.3001 7.33322 18.2498 7.43273L12.7321 18.4429L12.7215 18.4632L12.7093 18.4819L12.6102 18.6363C12.5516 18.7281 12.4709 18.8037 12.3755 18.8562C12.2801 18.9087 12.1731 18.9365 12.0642 18.9369C11.9656 18.9364 11.8683 18.9141 11.7793 18.8717C11.6902 18.8293 11.6116 18.7678 11.5491 18.6915C11.4882 18.6162 11.445 18.5282 11.4225 18.4341C11.4 18.3399 11.3988 18.2419 11.4191 18.1472L12.2551 14.1001L11.3451 14.3764C11.2207 14.4138 11.0879 14.4136 10.9635 14.3758C10.8392 14.3379 10.7288 14.264 10.6464 14.1635C10.5849 14.0884 10.541 14.0006 10.5178 13.9064C10.4946 13.8123 10.4928 13.7141 10.5123 13.6191L11.0242 11.1166L9.37726 11.4969C9.26577 11.5224 9.14955 11.5184 9.0401 11.4851C8.93065 11.4519 8.83177 11.3907 8.75326 11.3075C8.6924 11.2425 8.64539 11.1657 8.61509 11.0819C8.58478 10.9981 8.5718 10.909 8.57695 10.82L8.89301 5.48191L2.84801 4.40129C2.75487 4.38448 2.65887 4.3946 2.57129 4.43046C2.4837 4.46632 2.40817 4.52643 2.35356 4.60374C2.29896 4.68104 2.26755 4.77232 2.26302 4.86685C2.25849 4.96138 2.28104 5.05525 2.32801 5.13741L11.6596 21.4987C11.7032 21.5753 11.7663 21.6389 11.8426 21.6831C11.9188 21.7272 12.0055 21.7503 12.0936 21.75C12.1817 21.7497 12.2682 21.7259 12.3441 21.6812C12.42 21.6365 12.4827 21.5724 12.5257 21.4955L21.6745 5.13579C21.7203 5.05347 21.7418 4.95983 21.7365 4.86575C21.7312 4.77168 21.6993 4.68105 21.6445 4.60442C21.5896 4.52779 21.5142 4.46832 21.4268 4.43293C21.3395 4.39755 21.2439 4.3877 21.1512 4.40454Z" fill="#FFCD1E"/>
</svg>
